<svg width="16" height="16" viewBox="0 0 16 16" fill="none" xmlns="http://www.w3.org/2000/svg">
<g id="Pin 3 5">
<path id="Vector" d="M12.4 6.4C12.4 10 7.99998 14 7.99998 14C7.99998 14 3.59998 10 3.59998 6.4C3.59998 5.23305 4.06355 4.11389 4.88871 3.28873C5.71387 2.46357 6.83302 2 7.99998 2C9.16693 2 10.2861 2.46357 11.1112 3.28873C11.9364 4.11389 12.4 5.23305 12.4 6.4Z" stroke="#6E7787" stroke-width="0.8" stroke-linecap="round" stroke-linejoin="round"/>
<path id="Vector_2" d="M8 8.40002C9.10457 8.40002 10 7.50459 10 6.40002C10 5.29545 9.10457 4.40002 8 4.40002C6.89543 4.40002 6 5.29545 6 6.40002C6 7.50459 6.89543 8.40002 8 8.40002Z" stroke="#6E7787" stroke-width="0.8" stroke-linecap="round" stroke-linejoin="round"/>
</g>
</svg>
